<svg preserveAspectRatio="none" viewBox="0 0 277.055 247.533" fill="none" xmlns="http://www.w3.org/2000/svg">
  <g>
    <path d="M55.3994 222.539L55.4541 222.582C55.4541 222.582 67.1109 204.091 94.5663 202.152C122.029 200.21 136.094 214.781 138.534 216.859L138.622 216.867C144.716 222.289 152.934 225.379 161.775 224.757C178.984 223.544 191.919 208.862 190.677 191.969C189.446 175.094 174.496 162.372 157.287 163.588C148.443 164.218 140.775 168.435 135.525 174.647L135.438 174.672C133.333 177.072 121.534 193.471 94.0746 195.41C66.6228 197.352 52.3833 180.692 52.3833 180.692L52.3395 180.742C46.2215 175.223 37.9397 172.029 28.9964 172.659C11.7873 173.875 -1.15721 188.568 0.0820543 205.446C1.31877 222.328 16.2683 235.04 33.4774 233.827C42.4207 233.194 50.1575 228.881 55.3994 222.539Z" fill="white"/>
    <path d="M117.906 134.082L117.961 134.064C117.961 134.064 108.438 114.085 121.744 90.0169C135.042 65.9268 155.225 62.1717 158.346 61.2775L158.397 61.212C166.376 59.0963 173.51 53.9164 177.798 46.1663C186.139 31.0768 180.578 12.1303 165.396 3.85311C150.217 -4.43137 131.142 1.08327 122.809 16.1764C118.528 23.9265 117.969 32.6798 120.46 40.5135L120.412 40.5898C121.338 43.687 128.988 62.6224 115.682 86.7089C102.377 110.781 80.3057 113.529 80.3057 113.529L80.3166 113.58C72.2426 115.663 64.9807 120.846 60.6492 128.691C52.3118 143.773 57.8725 162.734 73.0474 171.015C88.237 179.296 107.301 173.767 115.638 158.685C119.97 150.833 120.482 141.97 117.906 134.082Z" fill="white"/>
    <path d="M248.884 185.529L248.895 185.463C248.895 185.463 226.817 186.196 210.015 164.505C193.205 142.846 197.744 122.976 198.158 119.794L198.119 119.721C199.331 111.626 197.429 103.07 192.018 96.092C181.476 82.4957 161.907 80.021 148.319 90.5475C134.738 101.052 132.247 120.603 142.778 134.188C148.199 141.177 156.003 145.157 164.148 146.017L164.22 146.068C167.416 146.464 187.791 147.041 204.579 168.71C221.395 190.384 215.178 211.56 215.178 211.56L215.24 211.567C213.951 219.746 215.828 228.415 221.308 235.48C231.831 249.058 251.4 251.536 264.978 241.013C278.581 230.501 281.061 210.947 270.537 197.369C265.061 190.311 257.138 186.316 248.884 185.529Z" fill="white"/>
  </g>
</svg>
